<svg xmlns="http://www.w3.org/2000/svg" version="1.1" xmlns:xlink="http://www.w3.org/1999/xlink" xmlns:svgjs="http://svgjs.dev/svgjs" width="2000" height="383" viewBox="0 0 2000 383"><g transform="matrix(1,0,0,1,-1.2121212121212466,1.1226439002466861)"><svg viewBox="0 0 396 76" data-background-color="#282634" preserveAspectRatio="xMidYMid meet" height="383" width="2000" xmlns="http://www.w3.org/2000/svg" xmlns:xlink="http://www.w3.org/1999/xlink"><g id="tight-bounds" transform="matrix(1,0,0,1,0.2400000000000091,-0.2227699854257139)"><svg viewBox="0 0 395.52 76.44553977501587" height="76.44553977501587" width="395.52"><g><svg viewBox="0 0 395.52 76.44553977501587" height="76.44553977501587" width="395.52"><g><svg viewBox="0 0 499.7230512384311 96.58575644705648" height="76.44553977501587" width="395.52"><g transform="matrix(1,0,0,1,0,13.348682692755276)"><svg viewBox="0 0 395.52 69.88839106154593" height="69.88839106154593" width="395.52"><g id="textblocktransform"><svg viewBox="0 0 395.52 69.88839106154593" height="69.88839106154593" width="395.52" id="textblock"><g><svg viewBox="0 0 395.52 41.90009242801279" height="41.90009242801279" width="395.52"><g transform="matrix(1,0,0,1,0,0)"><svg width="395.52" viewBox="3.8499999046325684 -35.5 422.3699951171875 44.70000076293945" height="41.90009242801279" data-palette-color="#ff4057"><g class="wordmark-text-0" data-fill-palette-color="primary" id="text-0"><path d="M3.85 0L3.85-34.9 17-34.9Q20.45-34.9 23.3-33.8 26.15-32.7 28.15-30.53 30.15-28.35 31.25-25.08 32.35-21.8 32.35-17.45L32.35-17.45Q32.35-13.1 31.25-9.83 30.15-6.55 28.15-4.38 26.15-2.2 23.3-1.1 20.45 0 17 0L17 0 3.85 0ZM11.45-6.75L17-6.75Q20.4-6.75 22.35-8.65 24.3-10.55 24.3-14.75L24.3-14.75 24.3-20.15Q24.3-24.35 22.35-26.25 20.4-28.15 17-28.15L17-28.15 11.45-28.15 11.45-6.75ZM53.95 0L37.35 0 37.35-6.05 41.85-6.05 41.85-28.85 37.35-28.85 37.35-34.9 53.95-34.9 53.95-28.85 49.45-28.85 49.45-6.05 53.95-6.05 53.95 0ZM71.6 0.6L71.6 0.6Q67 0.6 63.8-0.98 60.6-2.55 58.35-5.05L58.35-5.05 63.35-10.1Q66.9-6.1 72.1-6.1L72.1-6.1Q74.9-6.1 76.25-7.25 77.6-8.4 77.6-10.3L77.6-10.3Q77.6-11.75 76.8-12.73 76-13.7 73.55-14.05L73.55-14.05 70.1-14.5Q64.55-15.2 61.97-17.85 59.4-20.5 59.4-24.9L59.4-24.9Q59.4-27.25 60.3-29.2 61.2-31.15 62.87-32.55 64.55-33.95 66.97-34.73 69.4-35.5 72.5-35.5L72.5-35.5Q76.45-35.5 79.45-34.25 82.45-33 84.6-30.6L84.6-30.6 79.55-25.5Q78.3-26.95 76.52-27.88 74.75-28.8 72.05-28.8L72.05-28.8Q69.5-28.8 68.25-27.9 67-27 67-25.4L67-25.4Q67-23.6 67.97-22.8 68.95-22 71.15-21.65L71.15-21.65 74.6-21.1Q80-20.25 82.6-17.78 85.2-15.3 85.2-10.75L85.2-10.75Q85.2-8.25 84.3-6.15 83.4-4.05 81.67-2.55 79.95-1.05 77.4-0.23 74.85 0.6 71.6 0.6ZM105.59 0.6L105.59 0.6Q102.04 0.6 99.19-0.53 96.34-1.65 94.34-3.88 92.34-6.1 91.24-9.43 90.14-12.75 90.14-17.2L90.14-17.2Q90.14-21.6 91.24-25.03 92.34-28.45 94.34-30.78 96.34-33.1 99.19-34.3 102.04-35.5 105.59-35.5L105.59-35.5Q110.44-35.5 113.59-33.52 116.74-31.55 118.64-27.3L118.64-27.3 112.09-23.9Q111.39-26.1 109.92-27.43 108.44-28.75 105.59-28.75L105.59-28.75Q102.24-28.75 100.22-26.58 98.19-24.4 98.19-20.25L98.19-20.25 98.19-14.65Q98.19-10.5 100.22-8.33 102.24-6.15 105.59-6.15L105.59-6.15Q108.39-6.15 110.07-7.68 111.74-9.2 112.54-11.35L112.54-11.35 118.74-7.75Q116.79-3.75 113.62-1.58 110.44 0.6 105.59 0.6ZM138.04 0.6L138.04 0.6Q134.59 0.6 131.74-0.55 128.89-1.7 126.89-3.98 124.89-6.25 123.79-9.63 122.69-13 122.69-17.45L122.69-17.45Q122.69-21.9 123.79-25.28 124.89-28.65 126.89-30.93 128.89-33.2 131.74-34.35 134.59-35.5 138.04-35.5L138.04-35.5Q141.49-35.5 144.34-34.35 147.19-33.2 149.19-30.93 151.19-28.65 152.29-25.28 153.39-21.9 153.39-17.45L153.39-17.45Q153.39-13 152.29-9.63 151.19-6.25 149.19-3.98 147.19-1.7 144.34-0.55 141.49 0.6 138.04 0.6ZM138.04-6.15L138.04-6.15Q141.49-6.15 143.42-8.4 145.34-10.65 145.34-14.85L145.34-14.85 145.34-20.05Q145.34-24.25 143.42-26.5 141.49-28.75 138.04-28.75L138.04-28.75Q134.59-28.75 132.67-26.5 130.74-24.25 130.74-20.05L130.74-20.05 130.74-14.85Q130.74-10.65 132.67-8.4 134.59-6.15 138.04-6.15ZM159.54-34.9L166.94-34.9 166.94-13.5Q166.94-9.8 168.39-7.98 169.84-6.15 173.24-6.15L173.24-6.15Q176.64-6.15 178.09-7.98 179.54-9.8 179.54-13.5L179.54-13.5 179.54-34.9 186.94-34.9 186.94-14.3Q186.94-10.45 186.21-7.63 185.49-4.8 183.84-2.98 182.19-1.15 179.59-0.28 176.99 0.6 173.24 0.6L173.24 0.6Q169.49 0.6 166.89-0.28 164.29-1.15 162.64-2.98 160.99-4.8 160.26-7.63 159.54-10.45 159.54-14.3L159.54-14.3 159.54-34.9ZM214.64 0L205.09-16.5 201.74-23.5 201.59-23.5 201.59 0 194.44 0 194.44-34.9 202.74-34.9 212.29-18.4 215.64-11.4 215.79-11.4 215.79-34.9 222.94-34.9 222.94 0 214.64 0ZM254.63-28.15L245.18-28.15 245.18 0 237.58 0 237.58-28.15 228.13-28.15 228.13-34.9 254.63-34.9 254.63-28.15Z" fill="#ffffff" data-fill-palette-color="primary"></path><path d="M293.53 3L293.53 9.2 288.83 9.2Q284.78 9.2 282.93 7.3 281.08 5.4 281.08 1.8L281.08 1.8 281.08 0.35Q275.48-0.65 272.2-5.13 268.93-9.6 268.93-17.45L268.93-17.45Q268.93-21.9 270.03-25.28 271.13-28.65 273.13-30.93 275.13-33.2 277.98-34.35 280.83-35.5 284.28-35.5L284.28-35.5Q287.73-35.5 290.58-34.35 293.43-33.2 295.43-30.93 297.43-28.65 298.53-25.28 299.63-21.9 299.63-17.45L299.63-17.45Q299.63-9.85 296.55-5.4 293.48-0.95 288.18 0.2L288.18 0.2 288.18 3 293.53 3ZM284.28-6.15L284.28-6.15Q287.73-6.15 289.65-8.4 291.58-10.65 291.58-14.85L291.58-14.85 291.58-20.05Q291.58-24.25 289.65-26.5 287.73-28.75 284.28-28.75L284.28-28.75Q280.83-28.75 278.9-26.5 276.98-24.25 276.98-20.05L276.98-20.05 276.98-14.85Q276.98-10.65 278.9-8.4 280.83-6.15 284.28-6.15ZM305.78-34.9L313.18-34.9 313.18-13.5Q313.18-9.8 314.63-7.98 316.08-6.15 319.47-6.15L319.47-6.15Q322.88-6.15 324.33-7.98 325.78-9.8 325.78-13.5L325.78-13.5 325.78-34.9 333.18-34.9 333.18-14.3Q333.18-10.45 332.45-7.63 331.72-4.8 330.08-2.98 328.43-1.15 325.83-0.28 323.22 0.6 319.47 0.6L319.47 0.6Q315.73 0.6 313.13-0.28 310.53-1.15 308.88-2.98 307.23-4.8 306.5-7.63 305.78-10.45 305.78-14.3L305.78-14.3 305.78-34.9ZM364.42 0L340.67 0 340.67-34.9 364.42-34.9 364.42-28.15 348.27-28.15 348.27-21 362.12-21 362.12-14.3 348.27-14.3 348.27-6.75 364.42-6.75 364.42 0ZM382.32 0.6L382.32 0.6Q377.72 0.6 374.52-0.98 371.32-2.55 369.07-5.05L369.07-5.05 374.07-10.1Q377.62-6.1 382.82-6.1L382.82-6.1Q385.62-6.1 386.97-7.25 388.32-8.4 388.32-10.3L388.32-10.3Q388.32-11.75 387.52-12.73 386.72-13.7 384.27-14.05L384.27-14.05 380.82-14.5Q375.27-15.2 372.7-17.85 370.12-20.5 370.12-24.9L370.12-24.9Q370.12-27.25 371.02-29.2 371.92-31.15 373.6-32.55 375.27-33.95 377.7-34.73 380.12-35.5 383.22-35.5L383.22-35.5Q387.17-35.5 390.17-34.25 393.17-33 395.32-30.6L395.32-30.6 390.27-25.5Q389.02-26.95 387.25-27.88 385.47-28.8 382.77-28.8L382.77-28.8Q380.22-28.8 378.97-27.9 377.72-27 377.72-25.4L377.72-25.4Q377.72-23.6 378.7-22.8 379.67-22 381.87-21.65L381.87-21.65 385.32-21.1Q390.72-20.25 393.32-17.78 395.92-15.3 395.92-10.75L395.92-10.75Q395.92-8.25 395.02-6.15 394.12-4.05 392.4-2.55 390.67-1.05 388.12-0.23 385.57 0.6 382.32 0.6ZM426.22-28.15L416.77-28.15 416.77 0 409.17 0 409.17-28.15 399.72-28.15 399.72-34.9 426.22-34.9 426.22-28.15Z" fill="#ffffff" data-fill-palette-color="secondary"></path></g></svg></g></svg></g><g transform="matrix(1,0,0,1,163.310208,51.79169864804834)"><svg viewBox="0 0 232.209792 18.096692413497593" height="18.096692413497593" width="232.209792"><g transform="matrix(1,0,0,1,0,0)"><svg width="232.209792" viewBox="4.550000190734863 -35.04999923706055 560.0400390625 43.650001525878906" height="18.096692413497593" data-palette-color="#dcdcdc"><path d="M28.65-35L28.65 0 24.9 0 24.9-16.55 8.3-16.55 8.3 0 4.55 0 4.55-35 8.3-35 8.3-19.8 24.9-19.8 24.9-35 28.65-35ZM52.05-6.35L52.05-6.35 52.05-25 55.85-25 55.85 0 53.65 0 52.4-2.95Q48.4 0.3 44.75 0.3 41.1 0.3 39.17-1.83 37.25-3.95 37.25-7.85L37.25-7.85 37.25-25 41-25 41-8.45Q41-5.5 41.87-4.2 42.75-2.9 44.77-2.9 46.8-2.9 48.9-4 51-5.1 52.05-6.35ZM68.7-19.85L68.7-19.85 68.7 0 64.95 0 64.95-25 67.35-25 67.95-22.55Q69.1-23.45 69.82-23.95 70.55-24.45 72.15-24.98 73.75-25.5 75.55-25.5L75.55-25.5Q79-25.5 81.27-23.38 83.55-21.25 83.55-17.35L83.55-17.35 83.55 0 79.8 0 79.8-16.25Q79.8-22.3 74.75-22.3L74.75-22.3Q71.15-22.3 68.7-19.85ZM93.24-5.4L93.24-5.4 93.24-22 89.84-22 89.84-25 93.29-25 93.29-32.15 97.04-32.15 97.04-25 103.14-25 103.14-22 96.99-22 96.99-6.1Q96.99-2.75 100.39-2.75L100.39-2.75Q101.19-2.75 102.84-3.05L102.84-3.05 103.39-0.35Q101.34 0.3 99.17 0.3 96.99 0.3 95.12-1.03 93.24-2.35 93.24-5.4ZM147.74-18.75L147.74-18.75Q147.74-10.3 142.84-5.15 137.94 0 129.74 0L129.74 0 122.44 0 122.44-35 131.29-35Q138.74-35 143.24-30.45 147.74-25.9 147.74-18.75ZM143.69-19.15L143.69-19.15Q143.69-25.05 140.09-28.4 136.49-31.75 131.49-31.75L131.49-31.75 126.49-31.75 126.49-3.25 130.19-3.25Q135.84-3.25 139.76-7.5 143.69-11.75 143.69-19.15ZM172.14-11.7L172.14-11.7 156.19-11.7Q156.19-6.9 158.46-4.9 160.74-2.9 164.19-2.9L164.19-2.9Q165.94-2.9 166.64-3.08 167.34-3.25 167.96-3.43 168.59-3.6 168.84-3.7L168.84-3.7Q170.09-4.05 170.99-4.35L170.99-4.35 171.59-1.45Q166.59 0.3 163.79 0.3L163.79 0.3Q158.64 0.3 155.54-2.83 152.44-5.95 152.44-12.23 152.44-18.5 155.36-22 158.29-25.5 162.76-25.5 167.24-25.5 169.74-22.6 172.24-19.7 172.24-14.75L172.24-14.75Q172.24-13.4 172.14-11.7ZM156.44-14.55L156.44-14.55 168.64-14.55Q168.64-18.25 167.34-20.25 166.04-22.25 162.81-22.25 159.59-22.25 158.09-20.1 156.59-17.95 156.44-14.55ZM190.03-14.95L190.03-14.95 192.08-14.95Q192.08-19.5 190.93-20.88 189.78-22.25 185.83-22.25 181.88-22.25 179.13-21.2L179.13-21.2 178.43-24.1Q182.63-25.5 187.13-25.5L187.13-25.5Q195.93-25.5 195.93-16.7L195.93-16.7 195.93 0 193.73 0 192.43-2.95Q190.13-1.05 188.46-0.38 186.78 0.3 184.58 0.3L184.58 0.3Q181.08 0.3 179.13-1.78 177.18-3.85 177.18-7.25L177.18-7.25Q177.18-14.95 190.03-14.95ZM192.13-6.55L192.13-11.8 189.88-11.8Q184.78-11.8 182.86-10.8 180.93-9.8 180.93-7.68 180.93-5.55 182.03-4.2 183.13-2.85 184.91-2.85 186.68-2.85 188.31-3.68 189.93-4.5 192.13-6.55L192.13-6.55ZM208.78 0L205.03 0 205.03-35 208.78-35 208.78 0ZM216.03-1.65L216.93-4.45Q220.18-2.95 223.13-2.95 226.08-2.95 227.6-4.13 229.13-5.3 229.13-7.25 229.13-9.2 227.83-10.28 226.53-11.35 224.65-11.95 222.78-12.55 220.9-13.25 219.03-13.95 217.73-15.35 216.43-16.75 216.43-18.9L216.43-18.9Q216.43-22.05 218.48-23.78 220.53-25.5 224.03-25.5 227.53-25.5 230.53-24.45L230.53-24.45 230.88-24.3 230.23-21.1Q227.23-22.25 224.65-22.25 222.08-22.25 221.13-21.45 220.18-20.65 220.18-18.75L220.18-18.75Q220.18-17.55 221.48-16.7 222.78-15.85 224.65-15.23 226.53-14.6 228.4-13.78 230.28-12.95 231.58-11.3 232.88-9.65 232.88-7.25L232.88-7.25Q232.88-3.75 230.43-1.73 227.98 0.3 223.68 0.3 219.38 0.3 216.03-1.65L216.03-1.65ZM240.73-5.55L244.48-4.35 238.83 8.6 236.38 7.8 240.73-5.55ZM292.77-34.95L296.72-34.95 288.42 0 284.07 0 278.97-20.3 272.72 0 268.62 0 260.47-34.95 264.77-34.95 270.87-4.25 277.52-25.5 280.32-25.5 286.47-4.25 292.77-34.95ZM304.97 0L301.22 0 301.22-25 304.97-25 304.97 0ZM301.22-35L304.97-35 304.97-30.55 301.22-30.55 301.22-35ZM317.06-19.85L317.06-19.85 317.06 0 313.31 0 313.31-25 315.71-25 316.31-22.55Q317.46-23.45 318.19-23.95 318.91-24.45 320.51-24.98 322.12-25.5 323.91-25.5L323.91-25.5Q327.37-25.5 329.64-23.38 331.91-21.25 331.91-17.35L331.91-17.35 331.91 0 328.16 0 328.16-16.25Q328.16-22.3 323.12-22.3L323.12-22.3Q319.51-22.3 317.06-19.85ZM378.81-18.75L378.81-18.75Q378.81-10.3 373.91-5.15 369.01 0 360.81 0L360.81 0 353.51 0 353.51-35 362.36-35Q369.81-35 374.31-30.45 378.81-25.9 378.81-18.75ZM374.76-19.15L374.76-19.15Q374.76-25.05 371.16-28.4 367.56-31.75 362.56-31.75L362.56-31.75 357.56-31.75 357.56-3.25 361.26-3.25Q366.91-3.25 370.83-7.5 374.76-11.75 374.76-19.15ZM388.91 0L385.16 0 385.16-25 388.91-25 388.91 0ZM385.16-35L388.91-35 388.91-30.55 385.16-30.55 385.16-35ZM395.4-1.65L396.31-4.45Q399.56-2.95 402.5-2.95 405.45-2.95 406.98-4.13 408.5-5.3 408.5-7.25 408.5-9.2 407.2-10.28 405.9-11.35 404.03-11.95 402.15-12.55 400.28-13.25 398.4-13.95 397.1-15.35 395.81-16.75 395.81-18.9L395.81-18.9Q395.81-22.05 397.85-23.78 399.9-25.5 403.4-25.5 406.9-25.5 409.9-24.45L409.9-24.45 410.25-24.3 409.6-21.1Q406.6-22.25 404.03-22.25 401.45-22.25 400.5-21.45 399.56-20.65 399.56-18.75L399.56-18.75Q399.56-17.55 400.85-16.7 402.15-15.85 404.03-15.23 405.9-14.6 407.78-13.78 409.65-12.95 410.95-11.3 412.25-9.65 412.25-7.25L412.25-7.25Q412.25-3.75 409.81-1.73 407.35 0.3 403.06 0.3 398.75 0.3 395.4-1.65L395.4-1.65ZM433.75-3.9L433.75-3.9 434.5-0.95Q430.5 0.25 427.45 0.25L427.45 0.25Q422.1 0.25 419.4-3.25 416.7-6.75 416.7-12.9 416.7-19.05 419.5-22.28 422.3-25.5 427.75-25.5L427.75-25.5Q430.1-25.5 434.35-24.3L434.35-24.3 432.85-21.4Q430.1-22.2 427.9-22.2L427.9-22.2Q424.1-22.2 422.43-19.95 420.75-17.7 420.75-12.85L420.75-12.85Q420.75-3 427.8-3L427.8-3Q430.6-3 433.75-3.9ZM456.15-12.33Q456.15-17.15 454.25-19.7 452.35-22.25 448.7-22.25 445.05-22.25 443.52-19.83 442-17.4 442-12.4L442-12.4Q442-2.95 448.95-2.95L448.95-2.95Q452.6-2.95 454.38-5.23 456.15-7.5 456.15-12.33ZM457.05-3.1Q454.2 0.3 449 0.3 443.8 0.3 441.02-3.08 438.25-6.45 438.25-12.53 438.25-18.6 440.92-22.05 443.6-25.5 448.77-25.5 453.95-25.5 456.92-22 459.9-18.5 459.9-12.5 459.9-6.5 457.05-3.1ZM480.9-6.35L480.9-6.35 480.9-25 484.7-25 484.7 0 482.5 0 481.25-2.95Q477.25 0.3 473.6 0.3 469.95 0.3 468.02-1.83 466.1-3.95 466.1-7.85L466.1-7.85 466.1-25 469.85-25 469.85-8.45Q469.85-5.5 470.72-4.2 471.6-2.9 473.62-2.9 475.65-2.9 477.75-4 479.85-5.1 480.9-6.35ZM497.54-19.85L497.54-19.85 497.54 0 493.79 0 493.79-25 496.19-25 496.79-22.55Q497.94-23.45 498.67-23.95 499.39-24.45 500.99-24.98 502.59-25.5 504.39-25.5L504.39-25.5Q507.84-25.5 510.12-23.38 512.39-21.25 512.39-17.35L512.39-17.35 512.39 0 508.64 0 508.64-16.25Q508.64-22.3 503.59-22.3L503.59-22.3Q499.99-22.3 497.54-19.85ZM522.09-5.4L522.09-5.4 522.09-22 518.69-22 518.69-25 522.14-25 522.14-32.15 525.89-32.15 525.89-25 531.99-25 531.99-22 525.84-22 525.84-6.1Q525.84-2.75 529.24-2.75L529.24-2.75Q530.04-2.75 531.69-3.05L531.69-3.05 532.24-0.35Q530.19 0.3 528.02 0.3 525.84 0.3 523.97-1.03 522.09-2.35 522.09-5.4ZM536.94-1.65L537.84-4.45Q541.09-2.95 544.04-2.95 546.99-2.95 548.51-4.13 550.04-5.3 550.04-7.25 550.04-9.2 548.74-10.28 547.44-11.35 545.56-11.95 543.69-12.55 541.81-13.25 539.94-13.95 538.64-15.35 537.34-16.75 537.34-18.9L537.34-18.9Q537.34-22.05 539.39-23.78 541.44-25.5 544.94-25.5 548.44-25.5 551.44-24.45L551.44-24.45 551.79-24.3 551.14-21.1Q548.14-22.25 545.56-22.25 542.99-22.25 542.04-21.45 541.09-20.65 541.09-18.75L541.09-18.75Q541.09-17.55 542.39-16.7 543.69-15.85 545.56-15.23 547.44-14.6 549.31-13.78 551.19-12.95 552.49-11.3 553.79-9.65 553.79-7.25L553.79-7.25Q553.79-3.75 551.34-1.73 548.89 0.3 544.59 0.3 540.29 0.3 536.94-1.65L536.94-1.65ZM564.59-35.05L564.59-9.5 560.84-9.5 560.84-35.05 564.59-35.05ZM564.54-4.65L564.54 0 560.79 0 560.79-4.65 564.54-4.65Z" opacity="1" transform="matrix(1,0,0,1,0,0)" fill="#ffffff" class="slogan-text-1" data-fill-palette-color="secondary" id="text-1"></path></svg></g></svg></g></svg></g></svg></g><g transform="matrix(1,0,0,1,405.41160622003554,0)"><svg viewBox="0 0 94.31144501839555 96.58575644705648" height="96.58575644705648" width="94.31144501839555"><g><svg xmlns="http://www.w3.org/2000/svg" xmlns:xlink="http://www.w3.org/1999/xlink" version="1.1" x="0" y="0" viewBox="3.6736531257629395 3.511648416519165 89.84403228759766 92.01061248779297" enable-background="new 0 0 100 100" xml:space="preserve" height="96.58575644705648" width="94.31144501839555" class="icon-icon-0" data-fill-palette-color="accent" id="icon-0"><g fill="#dcdcdc" data-fill-palette-color="accent"><g fill="#dcdcdc" data-fill-palette-color="accent"><path d="M16.315 16.076l-8.601 2.581c-2.998 0.899-4.699 4.06-3.8 7.059l2.601 8.666c0.085-0.219 0.179-0.436 0.293-0.647L16.315 16.076z" fill="#ffffff" data-fill-palette-color="accent"></path><path d="M8.512 41.033l15.138 50.448c0.899 2.998 4.06 4.7 7.059 3.801l27.452-8.238c2.999-0.898 4.701-4.06 3.801-7.06L58.34 67.917 9.113 41.413C8.901 41.299 8.703 41.169 8.512 41.033z" fill="#ffffff" data-fill-palette-color="accent"></path></g><g fill="#dcdcdc" data-fill-palette-color="accent"><path d="M90.535 36.74L30.078 4.19c-2.757-1.484-6.195-0.452-7.679 2.304L8.812 31.731c-1.484 2.757-0.452 6.194 2.305 7.679l60.456 32.55c2.757 1.483 6.195 0.452 7.68-2.305l13.587-25.236C94.323 41.662 93.291 38.224 90.535 36.74zM26.636 24.296c-0.742 1.379-2.461 1.895-3.839 1.152-1.379-0.742-1.896-2.461-1.153-3.84 0.742-1.378 2.462-1.894 3.841-1.151C26.862 21.198 27.377 22.918 26.636 24.296zM60.656 33.527c0.742-1.379 2.462-1.895 3.84-1.152 1.379 0.741 1.894 2.461 1.151 3.839-0.742 1.379-2.46 1.895-3.839 1.152C60.431 36.624 59.914 34.905 60.656 33.527zM72.111 57.96c-0.742 1.379-2.46 1.895-3.839 1.152-1.378-0.742-1.895-2.461-1.152-3.84 0.742-1.378 2.462-1.895 3.84-1.152C72.339 54.862 72.854 56.582 72.111 57.96zM76.917 45.189l-19.478 5.845c-2.128 0.64-4.133 0.229-4.478-0.917l-0.073-0.244c-0.343-1.145 1.104-2.593 3.232-3.23L75.6 40.798c2.129-0.64 4.133-0.227 4.477 0.918l0.073 0.243C80.493 43.105 79.046 44.551 76.917 45.189z" fill="#ffffff" data-fill-palette-color="accent"></path></g></g></svg></g></svg></g></svg></g></svg></g><defs></defs></svg><rect width="395.52" height="76.44553977501587" fill="none" stroke="none" visibility="hidden"></rect></g></svg></g></svg>